<?xml version="1.0" standalone="no"?>
<!DOCTYPE svg PUBLIC "-//W3C//DTD SVG 20010904//EN"
 "http://www.w3.org/TR/2001/REC-SVG-20010904/DTD/svg10.dtd">
<svg version="1.0" xmlns="http://www.w3.org/2000/svg"
 width="512.000000pt" height="512.000000pt" viewBox="0 0 512.000000 512.000000"
 preserveAspectRatio="xMidYMid meet">
<metadata>
Created by potrace 1.11, written by Peter Selinger 2001-2013
</metadata>
<g transform="translate(0.000000,512.000000) scale(0.100000,-0.100000)"
fill="#000000" stroke="none">
<path d="M2440 5020 c0 -18 -7 -20 -80 -20 -73 0 -80 -2 -80 -20 0 -17 -7 -20
-40 -20 -33 0 -40 -3 -40 -20 0 -17 -7 -20 -40 -20 -33 0 -40 -3 -40 -20 0
-17 -7 -20 -40 -20 -33 0 -40 -3 -40 -20 0 -17 -7 -20 -40 -20 -33 0 -40 -3
-40 -20 0 -17 -7 -20 -40 -20 -33 0 -40 -3 -40 -20 0 -13 -7 -20 -20 -20 -13
0 -20 -7 -20 -20 0 -13 -7 -20 -20 -20 -13 0 -20 -7 -20 -20 0 -17 -7 -20 -40
-20 -33 0 -40 -3 -40 -20 0 -17 -7 -20 -40 -20 -33 0 -40 -3 -40 -20 0 -13 -7
-20 -20 -20 -13 0 -20 -7 -20 -20 0 -13 -7 -20 -20 -20 -13 0 -20 -7 -20 -20
0 -13 -7 -20 -20 -20 -17 0 -20 -7 -20 -40 0 -33 -3 -40 -20 -40 -13 0 -20 -7
-20 -20 0 -13 -7 -20 -20 -20 -17 0 -20 -7 -20 -40 0 -33 -3 -40 -20 -40 -17
0 -20 -7 -20 -40 0 -33 -3 -40 -20 -40 -18 0 -20 -7 -20 -60 0 -53 -2 -60 -20
-60 -19 0 -20 -7 -20 -120 0 -113 -1 -120 -20 -120 -19 0 -20 -7 -20 -100 0
-93 -1 -100 -20 -100 -20 0 -20 -7 -20 -280 0 -273 0 -280 20 -280 19 0 20 -7
20 -140 0 -133 -1 -140 -20 -140 -19 0 -20 -7 -20 -100 0 -93 1 -100 20 -100
20 0 20 -7 20 -340 0 -333 0 -340 20 -340 19 0 20 -7 20 -140 0 -133 1 -140
20 -140 19 0 20 -7 20 -120 0 -113 1 -120 20 -120 17 0 20 -7 20 -40 0 -33 3
-40 20 -40 18 0 20 -7 20 -60 0 -53 2 -60 20 -60 17 0 20 -7 20 -40 0 -33 3
-40 20 -40 17 0 20 -7 20 -40 0 -33 3 -40 20 -40 17 0 20 -7 20 -40 0 -33 3
-40 20 -40 17 0 20 -7 20 -40 0 -33 3 -40 20 -40 17 0 20 -7 20 -40 0 -33 3
-40 20 -40 17 0 20 -7 20 -40 0 -33 -3 -40 -20 -40 -13 0 -20 -7 -20 -20 0
-13 -7 -20 -20 -20 -13 0 -20 -7 -20 -20 0 -17 -7 -20 -40 -20 -33 0 -40 -3
-40 -20 0 -13 -7 -20 -20 -20 -13 0 -20 -7 -20 -20 0 -17 -7 -20 -40 -20 -33
0 -40 -3 -40 -20 0 -13 -7 -20 -20 -20 -13 0 -20 -7 -20 -20 0 -17 -7 -20 -40
-20 -33 0 -40 -3 -40 -20 0 -17 -7 -20 -40 -20 -33 0 -40 -3 -40 -20 0 -17 -7
-20 -40 -20 -33 0 -40 -3 -40 -20 0 -13 -7 -20 -20 -20 -13 0 -20 -7 -20 -20
0 -17 -7 -20 -40 -20 -33 0 -40 -3 -40 -20 0 -17 -7 -20 -40 -20 -33 0 -40 -3
-40 -20 0 -13 -7 -20 -20 -20 -13 0 -20 -7 -20 -20 0 -13 -7 -20 -20 -20 -13
0 -20 -7 -20 -20 0 -13 -7 -20 -20 -20 -13 0 -20 -7 -20 -20 0 -13 -7 -20 -20
-20 -13 0 -20 -7 -20 -20 0 -17 -7 -20 -40 -20 -33 0 -40 -3 -40 -20 0 -13 -7
-20 -20 -20 -13 0 -20 -7 -20 -20 0 -17 -7 -20 -40 -20 -33 0 -40 -3 -40 -20
0 -20 7 -20 2280 -20 l2280 0 0 480 0 480 -40 0 c-33 0 -40 -3 -40 -20 0 -18
-7 -20 -80 -20 -73 0 -80 2 -80 20 0 18 -7 20 -80 20 -73 0 -80 2 -80 20 0 18
-7 20 -60 20 -53 0 -60 2 -60 20 0 18 -7 20 -60 20 -53 0 -60 2 -60 20 0 19
-7 20 -200 20 -193 0 -200 1 -200 20 0 18 -7 20 -80 20 l-80 0 0 60 c0 53 2
60 20 60 18 0 20 7 20 60 0 53 2 60 20 60 18 0 20 7 20 60 0 53 2 60 20 60 19
0 20 7 20 100 0 93 1 100 20 100 18 0 20 7 20 80 0 73 2 80 20 80 20 0 20 7
20 340 0 333 0 340 20 340 19 0 20 7 20 120 0 113 1 120 20 120 18 0 20 7 20
80 0 73 2 80 20 80 18 0 20 7 20 60 0 53 2 60 20 60 13 0 20 7 20 20 0 13 7
20 20 20 19 0 20 7 20 100 0 93 -1 100 -20 100 -13 0 -20 7 -20 20 0 17 -7 20
-40 20 l-40 0 0 40 c0 33 -3 40 -20 40 -13 0 -20 7 -20 20 0 13 7 20 20 20 19
0 20 7 20 140 0 133 -1 140 -20 140 -19 0 -20 7 -20 100 0 93 -1 100 -20 100
-18 0 -20 7 -20 80 0 73 -2 80 -20 80 -18 0 -20 7 -20 60 0 53 -2 60 -20 60
-17 0 -20 7 -20 40 0 33 -3 40 -20 40 -17 0 -20 7 -20 40 0 33 -3 40 -20 40
-13 0 -20 7 -20 20 0 13 -7 20 -20 20 -17 0 -20 7 -20 40 0 33 -3 40 -20 40
-13 0 -20 7 -20 20 0 13 -7 20 -20 20 -13 0 -20 7 -20 20 0 13 -7 20 -20 20
-13 0 -20 7 -20 20 0 17 -7 20 -40 20 -33 0 -40 3 -40 20 0 13 -7 20 -20 20
-13 0 -20 7 -20 20 0 17 -7 20 -40 20 -33 0 -40 3 -40 20 0 13 -7 20 -20 20
-13 0 -20 7 -20 20 0 17 -7 20 -40 20 -33 0 -40 3 -40 20 0 17 -7 20 -40 20
-33 0 -40 3 -40 20 0 13 -7 20 -20 20 -13 0 -20 7 -20 20 0 17 -7 20 -40 20
-33 0 -40 3 -40 20 0 17 -7 20 -40 20 -33 0 -40 3 -40 20 0 18 -7 20 -60 20
-53 0 -60 2 -60 20 0 18 -7 20 -80 20 -73 0 -80 2 -80 20 0 19 -7 20 -240 20
-233 0 -240 -1 -240 -20z m440 -120 c0 -13 -7 -20 -20 -20 -13 0 -20 7 -20 20
0 13 7 20 20 20 13 0 20 -7 20 -20z m-120 -120 c0 -13 7 -20 20 -20 13 0 20 7
20 20 0 13 7 20 20 20 13 0 20 -7 20 -20 0 -13 7 -20 20 -20 13 0 20 7 20 20
0 17 7 20 40 20 l40 0 0 -40 0 -40 60 0 c53 0 60 -2 60 -20 0 -19 -7 -20 -100
-20 -93 0 -100 -1 -100 -20 0 -18 -7 -20 -80 -20 -73 0 -80 2 -80 20 0 13 -7
20 -20 20 -13 0 -20 -7 -20 -20 0 -13 -7 -20 -20 -20 -17 0 -20 7 -20 40 l0
40 40 0 40 0 0 40 c0 33 3 40 20 40 13 0 20 -7 20 -20z m-480 -120 c0 -17 7
-20 40 -20 33 0 40 -3 40 -20 0 -13 7 -20 20 -20 13 0 20 -7 20 -20 0 -19 7
-20 240 -20 233 0 240 1 240 20 0 19 7 20 160 20 153 0 160 1 160 20 0 19 7
20 120 20 113 0 120 -1 120 -20 0 -17 7 -20 40 -20 33 0 40 -3 40 -20 0 -17 7
-20 40 -20 33 0 40 -3 40 -20 0 -13 7 -20 20 -20 13 0 20 -7 20 -20 0 -13 7
-20 20 -20 17 0 20 -7 20 -40 0 -33 3 -40 20 -40 13 0 20 -7 20 -20 0 -13 7
-20 20 -20 17 0 20 -7 20 -40 0 -33 3 -40 20 -40 13 0 20 -7 20 -20 0 -13 7
-20 20 -20 18 0 20 -7 20 -60 0 -53 2 -60 20 -60 18 0 20 -7 20 -80 0 -73 2
-80 20 -80 18 0 20 -7 20 -60 0 -53 2 -60 20 -60 19 0 20 -7 20 -100 0 -93 1
-100 20 -100 19 0 20 -7 20 -100 0 -93 1 -100 20 -100 17 0 20 -7 20 -40 l0
-40 -80 0 -80 0 0 40 c0 33 -3 40 -20 40 -13 0 -20 7 -20 20 0 13 -7 20 -20
20 -13 0 -20 7 -20 20 0 18 -7 20 -60 20 -53 0 -60 2 -60 20 0 19 -7 20 -120
20 -113 0 -120 -1 -120 -20 0 -19 -7 -20 -140 -20 -133 0 -140 -1 -140 -20 0
-17 -7 -20 -40 -20 -33 0 -40 -3 -40 -20 0 -17 -7 -20 -40 -20 -33 0 -40 -3
-40 -20 0 -13 -7 -20 -20 -20 -17 0 -20 -7 -20 -40 l0 -40 -100 0 c-93 0 -100
1 -100 20 0 18 -7 20 -80 20 -73 0 -80 2 -80 20 0 17 -7 20 -40 20 -33 0 -40
3 -40 20 0 17 -7 20 -40 20 -33 0 -40 3 -40 20 0 13 -7 20 -20 20 -13 0 -20 7
-20 20 0 18 -7 20 -80 20 -73 0 -80 2 -80 20 0 19 -7 20 -200 20 -193 0 -200
-1 -200 -20 0 -18 -7 -20 -80 -20 -73 0 -80 -2 -80 -20 0 -13 -7 -20 -20 -20
-13 0 -20 -7 -20 -20 0 -17 -7 -20 -40 -20 -33 0 -40 -3 -40 -20 0 -17 -7 -20
-40 -20 -33 0 -40 -3 -40 -20 0 -13 -7 -20 -20 -20 -13 0 -20 7 -20 20 0 13
-7 20 -20 20 -13 0 -20 7 -20 20 0 13 7 20 20 20 18 0 20 7 20 80 0 73 2 80
20 80 19 0 20 7 20 140 0 133 1 140 20 140 18 0 20 7 20 60 0 53 2 60 20 60
17 0 20 7 20 40 0 33 3 40 20 40 17 0 20 7 20 40 0 33 3 40 20 40 17 0 20 7
20 40 0 33 3 40 20 40 17 0 20 7 20 40 0 33 3 40 20 40 17 0 20 7 20 40 0 33
3 40 20 40 13 0 20 7 20 20 0 13 7 20 20 20 17 0 20 7 20 40 0 33 3 40 20 40
13 0 20 7 20 20 0 13 7 20 20 20 13 0 20 7 20 20 0 17 7 20 40 20 33 0 40 3
40 20 0 13 7 20 20 20 13 0 20 7 20 20 0 19 7 20 140 20 133 0 140 -1 140 -20z
m1840 -760 c0 -13 -7 -20 -20 -20 -13 0 -20 7 -20 20 0 13 7 20 20 20 13 0 20
-7 20 -20z m-2760 -160 c0 -53 -2 -60 -20 -60 -19 0 -20 -7 -20 -100 0 -93 -1
-100 -20 -100 -19 0 -20 7 -20 100 0 93 1 100 20 100 18 0 20 7 20 60 0 53 2
60 20 60 18 0 20 -7 20 -60z m0 -360 c0 -13 -7 -20 -20 -20 -13 0 -20 7 -20
20 0 13 7 20 20 20 13 0 20 -7 20 -20z m880 -80 c0 -53 -2 -60 -20 -60 -13 0
-20 7 -20 20 0 13 -7 20 -20 20 -13 0 -20 7 -20 20 0 13 -7 20 -20 20 -17 0
-20 -7 -20 -40 l0 -40 -80 0 c-73 0 -80 -2 -80 -20 0 -19 -7 -20 -120 -20
-113 0 -120 1 -120 20 0 17 -7 20 -40 20 -33 0 -40 3 -40 20 0 13 7 20 20 20
13 0 20 7 20 20 0 18 7 20 60 20 53 0 60 2 60 20 0 19 7 20 220 20 l220 0 0
-60z m1640 0 c0 -18 7 -20 60 -20 53 0 60 -2 60 -20 0 -13 7 -20 20 -20 13 0
20 -7 20 -20 0 -13 7 -20 20 -20 13 0 20 -7 20 -20 0 -13 -7 -20 -20 -20 -13
0 -20 -7 -20 -20 0 -13 -7 -20 -20 -20 -13 0 -20 7 -20 20 0 17 -7 20 -40 20
-33 0 -40 3 -40 20 0 13 -7 20 -20 20 -13 0 -20 7 -20 20 0 13 -7 20 -20 20
-18 0 -20 -7 -20 -60 l0 -60 -40 0 c-33 0 -40 3 -40 20 0 13 -7 20 -20 20 -13
0 -20 -7 -20 -20 0 -17 -7 -20 -40 -20 -33 0 -40 3 -40 20 0 13 -7 20 -20 20
-13 0 -20 7 -20 20 0 17 -7 20 -40 20 -33 0 -40 3 -40 20 0 17 -7 20 -40 20
l-40 0 0 40 0 40 220 0 c213 0 220 -1 220 -20z m-1000 -160 c0 -13 7 -20 20
-20 13 0 20 -7 20 -20 0 -13 7 -20 20 -20 18 0 20 -7 20 -60 0 -53 2 -60 20
-60 18 0 20 -7 20 -80 0 -73 2 -80 20 -80 18 0 20 -7 20 -60 0 -53 2 -60 20
-60 13 0 20 -7 20 -20 0 -13 7 -20 20 -20 13 0 20 -7 20 -20 0 -18 7 -20 60
-20 53 0 60 -2 60 -20 0 -20 7 -20 360 -20 353 0 360 0 360 20 0 17 7 20 40
20 33 0 40 3 40 20 0 17 7 20 40 20 l40 0 0 -60 c0 -53 -2 -60 -20 -60 -18 0
-20 -7 -20 -60 0 -53 -2 -60 -20 -60 -18 0 -20 -7 -20 -60 0 -53 -2 -60 -20
-60 -17 0 -20 -7 -20 -40 0 -33 -3 -40 -20 -40 -19 0 -20 -7 -20 -140 0 -133
-1 -140 -20 -140 -13 0 -20 -7 -20 -20 0 -13 7 -20 20 -20 18 0 20 -7 20 -60
0 -53 -2 -60 -20 -60 -17 0 -20 -7 -20 -40 0 -33 -3 -40 -20 -40 -13 0 -20 -7
-20 -20 0 -13 -7 -20 -20 -20 -18 0 -20 -7 -20 -80 0 -73 -2 -80 -20 -80 -17
0 -20 -7 -20 -40 0 -33 -3 -40 -20 -40 -13 0 -20 -7 -20 -20 0 -17 7 -20 40
-20 l40 0 0 40 c0 33 3 40 20 40 17 0 20 -7 20 -40 0 -33 -3 -40 -20 -40 -13
0 -20 -7 -20 -20 0 -13 7 -20 20 -20 13 0 20 -7 20 -20 0 -18 -7 -20 -60 -20
-53 0 -60 -2 -60 -20 0 -17 -7 -20 -40 -20 -33 0 -40 -3 -40 -20 0 -13 -7 -20
-20 -20 -13 0 -20 7 -20 20 0 17 -7 20 -40 20 l-40 0 0 60 c0 53 -2 60 -20 60
-17 0 -20 7 -20 40 0 33 -3 40 -20 40 -17 0 -20 7 -20 40 0 33 -3 40 -20 40
-13 0 -20 7 -20 20 0 13 -7 20 -20 20 -13 0 -20 7 -20 20 0 13 -7 20 -20 20
-17 0 -20 7 -20 40 0 33 -3 40 -20 40 -13 0 -20 7 -20 20 0 13 -7 20 -20 20
-17 0 -20 7 -20 40 l0 40 -40 0 c-33 0 -40 3 -40 20 0 13 -7 20 -20 20 -13 0
-20 7 -20 20 0 13 -7 20 -20 20 -13 0 -20 7 -20 20 0 13 -7 20 -20 20 -17 0
-20 7 -20 40 l0 40 -40 0 c-33 0 -40 3 -40 20 0 13 7 20 20 20 13 0 20 7 20
20 0 13 7 20 20 20 17 0 20 7 20 40 0 33 3 40 20 40 13 0 20 7 20 20 0 13 7
20 20 20 18 0 20 7 20 80 l0 80 -80 0 c-73 0 -80 -2 -80 -20 0 -18 -7 -20 -60
-20 -53 0 -60 -2 -60 -20 0 -13 -7 -20 -20 -20 -13 0 -20 -7 -20 -20 0 -13 -7
-20 -20 -20 -13 0 -20 7 -20 20 0 17 -7 20 -40 20 -33 0 -40 -3 -40 -20 0 -17
-7 -20 -40 -20 -33 0 -40 3 -40 20 0 13 -7 20 -20 20 -13 0 -20 7 -20 20 0 18
-7 20 -60 20 -53 0 -60 -2 -60 -20 0 -13 -7 -20 -20 -20 -18 0 -20 -7 -20 -60
0 -53 2 -60 20 -60 13 0 20 -7 20 -20 0 -17 7 -20 40 -20 33 0 40 3 40 20 0
18 7 20 80 20 l80 0 0 -40 c0 -33 3 -40 20 -40 17 0 20 -7 20 -40 l0 -40 -40
0 c-33 0 -40 -3 -40 -20 0 -13 -7 -20 -20 -20 -13 0 -20 -7 -20 -20 0 -17 -7
-20 -40 -20 l-40 0 0 -40 c0 -33 -3 -40 -20 -40 -17 0 -20 7 -20 40 0 33 3 40
20 40 17 0 20 7 20 40 l0 40 -40 0 c-33 0 -40 -3 -40 -20 0 -17 -7 -20 -40
-20 -33 0 -40 -3 -40 -20 0 -13 7 -20 20 -20 17 0 20 -7 20 -40 0 -33 3 -40
20 -40 13 0 20 -7 20 -20 0 -13 7 -20 20 -20 13 0 20 -7 20 -20 0 -18 7 -20
60 -20 53 0 60 -2 60 -20 0 -13 7 -20 20 -20 13 0 20 -7 20 -20 0 -18 7 -20
80 -20 73 0 80 2 80 20 0 13 7 20 20 20 17 0 20 7 20 40 0 33 3 40 20 40 13 0
20 -7 20 -20 0 -13 7 -20 20 -20 17 0 20 -7 20 -40 0 -33 3 -40 20 -40 13 0
20 -7 20 -20 0 -17 7 -20 40 -20 33 0 40 -3 40 -20 0 -13 7 -20 20 -20 13 0
20 -7 20 -20 0 -19 -7 -20 -120 -20 -113 0 -120 1 -120 20 0 13 -7 20 -20 20
-13 0 -20 -7 -20 -20 0 -17 -7 -20 -40 -20 -33 0 -40 -3 -40 -20 0 -17 -7 -20
-40 -20 -33 0 -40 3 -40 20 0 13 -7 20 -20 20 -13 0 -20 7 -20 20 0 18 -7 20
-80 20 -73 0 -80 -2 -80 -20 0 -19 -7 -20 -100 -20 -93 0 -100 1 -100 20 0 13
-7 20 -20 20 -13 0 -20 7 -20 20 0 17 -7 20 -40 20 -33 0 -40 3 -40 20 0 13
-7 20 -20 20 -18 0 -20 -7 -20 -60 0 -53 -2 -60 -20 -60 -13 0 -20 7 -20 20 0
13 -7 20 -20 20 -13 0 -20 -7 -20 -20 0 -13 -7 -20 -20 -20 -13 0 -20 -7 -20
-20 0 -17 -7 -20 -40 -20 l-40 0 0 -40 c0 -33 -3 -40 -20 -40 -17 0 -20 -7
-20 -40 0 -33 -3 -40 -20 -40 -17 0 -20 -7 -20 -40 0 -33 -3 -40 -20 -40 -13
0 -20 -7 -20 -20 0 -19 -7 -20 -100 -20 l-100 0 0 40 c0 33 3 40 20 40 13 0
20 7 20 20 0 17 -7 20 -40 20 -33 0 -40 3 -40 20 0 13 7 20 20 20 13 0 20 7
20 20 0 13 7 20 20 20 13 0 20 7 20 20 0 17 -7 20 -40 20 -33 0 -40 3 -40 20
0 17 7 20 40 20 33 0 40 3 40 20 0 13 -7 20 -20 20 -13 0 -20 7 -20 20 0 13 7
20 20 20 13 0 20 7 20 20 0 13 -7 20 -20 20 -17 0 -20 7 -20 40 0 33 -3 40
-20 40 -13 0 -20 7 -20 20 0 17 -7 20 -40 20 -33 0 -40 3 -40 20 0 13 7 20 20
20 13 0 20 7 20 20 0 13 -7 20 -20 20 -13 0 -20 7 -20 20 0 13 7 20 20 20 19
0 20 7 20 100 0 93 -1 100 -20 100 -18 0 -20 7 -20 80 0 73 -2 80 -20 80 -13
0 -20 7 -20 20 0 13 -7 20 -20 20 -17 0 -20 7 -20 40 0 33 -3 40 -20 40 -13 0
-20 7 -20 20 0 13 -7 20 -20 20 -19 0 -20 7 -20 120 0 113 -1 120 -20 120 -19
0 -20 7 -20 100 0 93 1 100 20 100 19 0 20 7 20 120 0 113 1 120 20 120 17 0
20 -7 20 -40 0 -33 3 -40 20 -40 18 0 20 -7 20 -80 0 -73 2 -80 20 -80 17 0
20 -7 20 -40 0 -33 3 -40 20 -40 17 0 20 -7 20 -40 l0 -40 40 0 c33 0 40 -3
40 -20 0 -19 7 -20 100 -20 93 0 100 -1 100 -20 0 -20 7 -20 320 -20 313 0
320 0 320 20 0 18 7 20 60 20 l60 0 0 40 c0 33 3 40 20 40 17 0 20 7 20 40 0
33 3 40 20 40 17 0 20 7 20 40 0 33 3 40 20 40 18 0 20 7 20 60 0 53 2 60 20
60 17 0 20 7 20 40 0 33 3 40 20 40 13 0 20 7 20 20 0 17 7 20 40 20 33 0 40
3 40 20 0 17 7 20 40 20 33 0 40 -3 40 -20z m-1200 -40 c0 -13 -7 -20 -20 -20
-13 0 -20 -7 -20 -20 0 -13 -7 -20 -20 -20 -13 0 -20 -7 -20 -20 0 -13 7 -20
20 -20 13 0 20 -7 20 -20 0 -17 7 -20 40 -20 33 0 40 3 40 20 0 13 7 20 20 20
13 0 20 7 20 20 0 18 7 20 60 20 53 0 60 2 60 20 0 18 7 20 60 20 l60 0 0 -40
c0 -33 3 -40 20 -40 13 0 20 -7 20 -20 0 -18 7 -20 60 -20 53 0 60 2 60 20 0
17 7 20 40 20 l40 0 0 -40 c0 -33 3 -40 20 -40 13 0 20 7 20 20 0 18 7 20 60
20 53 0 60 -2 60 -20 0 -17 7 -20 40 -20 l40 0 0 40 c0 33 3 40 20 40 18 0 20
-7 20 -60 0 -53 -2 -60 -20 -60 -18 0 -20 -7 -20 -60 0 -53 -2 -60 -20 -60
-13 0 -20 -7 -20 -20 0 -13 -7 -20 -20 -20 -13 0 -20 -7 -20 -20 0 -20 -7 -20
-320 -20 -313 0 -320 0 -320 20 0 18 -7 20 -80 20 -73 0 -80 2 -80 20 0 13 -7
20 -20 20 -13 0 -20 7 -20 20 0 13 -7 20 -20 20 -17 0 -20 7 -20 40 0 33 -3
40 -20 40 -19 0 -20 7 -20 100 0 93 1 100 20 100 18 0 20 -7 20 -60 0 -53 2
-60 20 -60 17 0 20 7 20 40 0 33 3 40 20 40 17 0 20 7 20 40 l0 40 40 0 c33 0
40 -3 40 -20z m2160 -40 c0 -19 7 -20 140 -20 l140 0 0 -120 c0 -113 -1 -120
-20 -120 -17 0 -20 -7 -20 -40 0 -33 -3 -40 -20 -40 -13 0 -20 -7 -20 -20 0
-17 -7 -20 -40 -20 -33 0 -40 -3 -40 -20 0 -20 -7 -20 -360 -20 -353 0 -360 0
-360 20 0 13 -7 20 -20 20 -13 0 -20 7 -20 20 0 13 -7 20 -20 20 -13 0 -20 7
-20 20 0 13 -7 20 -20 20 -18 0 -20 7 -20 60 0 53 -2 60 -20 60 -13 0 -20 7
-20 20 0 17 7 20 40 20 33 0 40 3 40 20 0 17 7 20 40 20 33 0 40 3 40 20 0 13
7 20 20 20 13 0 20 -7 20 -20 0 -13 -7 -20 -20 -20 -13 0 -20 -7 -20 -20 0
-17 7 -20 40 -20 33 0 40 3 40 20 0 18 7 20 80 20 73 0 80 2 80 20 0 13 7 20
20 20 13 0 20 7 20 20 0 17 7 20 40 20 33 0 40 -3 40 -20 0 -17 -7 -20 -40
-20 -33 0 -40 -3 -40 -20 0 -19 7 -20 100 -20 93 0 100 -1 100 -20 0 -17 7
-20 40 -20 l40 0 0 80 c0 73 2 80 20 80 13 0 20 -7 20 -20z m-2480 -760 c0
-13 -7 -20 -20 -20 -13 0 -20 7 -20 20 0 13 7 20 20 20 13 0 20 -7 20 -20z m0
-80 c0 -13 -7 -20 -20 -20 -13 0 -20 7 -20 20 0 13 7 20 20 20 13 0 20 -7 20
-20z m80 -280 c0 -13 -7 -20 -20 -20 -13 0 -20 7 -20 20 0 13 7 20 20 20 13 0
20 -7 20 -20z m-40 -80 c0 -13 -7 -20 -20 -20 -13 0 -20 7 -20 20 0 13 7 20
20 20 13 0 20 -7 20 -20z m1240 0 c0 -13 -7 -20 -20 -20 -13 0 -20 7 -20 20 0
13 7 20 20 20 13 0 20 -7 20 -20z m-1120 -240 c0 -13 -7 -20 -20 -20 -13 0
-20 7 -20 20 0 13 7 20 20 20 13 0 20 -7 20 -20z m1080 -120 c0 -19 7 -20 240
-20 233 0 240 -1 240 -20 0 -18 7 -20 60 -20 l60 0 0 -40 c0 -33 3 -40 20 -40
13 0 20 -7 20 -20 0 -13 7 -20 20 -20 17 0 20 -7 20 -40 l0 -40 40 0 c33 0 40
-3 40 -20 0 -13 7 -20 20 -20 13 0 20 -7 20 -20 0 -13 7 -20 20 -20 13 0 20
-7 20 -20 0 -13 7 -20 20 -20 17 0 20 -7 20 -40 0 -33 3 -40 20 -40 13 0 20
-7 20 -20 0 -17 7 -20 40 -20 l40 0 0 -40 c0 -33 -3 -40 -20 -40 -13 0 -20 -7
-20 -20 0 -13 7 -20 20 -20 13 0 20 -7 20 -20 0 -18 -7 -20 -60 -20 -53 0 -60
-2 -60 -20 0 -13 7 -20 20 -20 13 0 20 -7 20 -20 0 -13 7 -20 20 -20 13 0 20
7 20 20 0 17 7 20 40 20 33 0 40 3 40 20 0 13 7 20 20 20 17 0 20 7 20 40 0
33 3 40 20 40 17 0 20 -7 20 -40 0 -33 -3 -40 -20 -40 -13 0 -20 -7 -20 -20 0
-13 -7 -20 -20 -20 -13 0 -20 -7 -20 -20 0 -13 -7 -20 -20 -20 -13 0 -20 -7
-20 -20 0 -13 -7 -20 -20 -20 -13 0 -20 -7 -20 -20 0 -17 -7 -20 -40 -20 l-40
0 0 -40 c0 -33 -3 -40 -20 -40 -13 0 -20 7 -20 20 0 13 -7 20 -20 20 -17 0
-20 -7 -20 -40 0 -33 3 -40 20 -40 13 0 20 -7 20 -20 0 -17 -7 -20 -40 -20
-33 0 -40 3 -40 20 0 13 -7 20 -20 20 -17 0 -20 -7 -20 -40 0 -33 3 -40 20
-40 13 0 20 -7 20 -20 0 -13 -7 -20 -20 -20 -13 0 -20 -7 -20 -20 0 -13 -7
-20 -20 -20 -13 0 -20 7 -20 20 0 13 -7 20 -20 20 -17 0 -20 -7 -20 -40 0 -33
-3 -40 -20 -40 -13 0 -20 7 -20 20 0 17 -7 20 -40 20 l-40 0 0 -60 0 -60 -80
0 -80 0 0 -40 c0 -33 -3 -40 -20 -40 -13 0 -20 7 -20 20 0 13 -7 20 -20 20
-17 0 -20 7 -20 40 0 33 3 40 20 40 13 0 20 7 20 20 0 18 -7 20 -80 20 -73 0
-80 -2 -80 -20 0 -13 -7 -20 -20 -20 -13 0 -20 7 -20 20 0 18 -7 20 -60 20
-53 0 -60 2 -60 20 0 13 -7 20 -20 20 -17 0 -20 -7 -20 -40 0 -33 -3 -40 -20
-40 -13 0 -20 7 -20 20 0 17 -7 20 -40 20 -33 0 -40 -3 -40 -20 0 -13 7 -20
20 -20 17 0 20 -7 20 -40 0 -33 -3 -40 -20 -40 -17 0 -20 7 -20 40 0 33 -3 40
-20 40 -13 0 -20 -7 -20 -20 0 -13 -7 -20 -20 -20 -13 0 -20 7 -20 20 0 13 -7
20 -20 20 -13 0 -20 7 -20 20 0 17 -7 20 -40 20 -33 0 -40 3 -40 20 0 17 -7
20 -40 20 -33 0 -40 3 -40 20 0 13 7 20 20 20 13 0 20 7 20 20 0 13 -7 20 -20
20 -17 0 -20 7 -20 40 l0 40 -60 0 c-53 0 -60 2 -60 20 0 13 7 20 20 20 13 0
20 7 20 20 0 17 -7 20 -40 20 -33 0 -40 -3 -40 -20 0 -13 -7 -20 -20 -20 -13
0 -20 7 -20 20 0 13 7 20 20 20 13 0 20 7 20 20 0 13 7 20 20 20 18 0 20 7 20
80 0 73 2 80 20 80 13 0 20 7 20 20 0 13 7 20 20 20 17 0 20 7 20 40 0 33 -3
40 -20 40 -13 0 -20 -7 -20 -20 0 -17 -7 -20 -40 -20 -33 0 -40 3 -40 20 0 13
7 20 20 20 13 0 20 7 20 20 0 13 -7 20 -20 20 -13 0 -20 7 -20 20 0 13 7 20
20 20 18 0 20 7 20 60 0 53 2 60 20 60 18 0 20 7 20 60 0 53 2 60 20 60 13 0
20 7 20 20 0 13 7 20 20 20 17 0 20 7 20 40 0 33 3 40 20 40 13 0 20 7 20 20
0 13 7 20 20 20 13 0 20 7 20 20 0 18 7 20 60 20 53 0 60 2 60 20 0 19 7 20
120 20 113 0 120 -1 120 -20z m-1120 -120 c0 -13 7 -20 20 -20 13 0 20 -7 20
-20 0 -13 -7 -20 -20 -20 -13 0 -20 7 -20 20 0 13 -7 20 -20 20 -13 0 -20 7
-20 20 0 13 7 20 20 20 13 0 20 -7 20 -20z m40 -120 c0 -13 7 -20 20 -20 17 0
20 -7 20 -40 0 -33 3 -40 20 -40 13 0 20 7 20 20 0 13 7 20 20 20 17 0 20 -7
20 -40 0 -33 -3 -40 -20 -40 -13 0 -20 -7 -20 -20 0 -13 7 -20 20 -20 17 0 20
-7 20 -40 0 -33 3 -40 20 -40 17 0 20 -7 20 -40 0 -33 -3 -40 -20 -40 -17 0
-20 7 -20 40 0 33 -3 40 -20 40 -17 0 -20 7 -20 40 0 33 -3 40 -20 40 -17 0
-20 7 -20 40 0 33 -3 40 -20 40 -17 0 -20 7 -20 40 0 33 -3 40 -20 40 -13 0
-20 7 -20 20 0 13 7 20 20 20 13 0 20 -7 20 -20z m2240 -120 c0 -13 -7 -20
-20 -20 -13 0 -20 7 -20 20 0 13 7 20 20 20 13 0 20 -7 20 -20z m160 -40 c0
-13 -7 -20 -20 -20 -13 0 -20 7 -20 20 0 13 7 20 20 20 13 0 20 -7 20 -20z
m-2200 -240 c0 -13 -7 -20 -20 -20 -13 0 -20 7 -20 20 0 13 7 20 20 20 13 0
20 -7 20 -20z m2080 -160 c0 -173 -1 -180 -20 -180 -18 0 -20 -7 -20 -60 0
-53 -2 -60 -20 -60 -17 0 -20 -7 -20 -40 0 -33 -3 -40 -20 -40 -13 0 -20 -7
-20 -20 0 -13 -7 -20 -20 -20 -13 0 -20 -7 -20 -20 0 -13 -7 -20 -20 -20 -13
0 -20 -7 -20 -20 0 -18 -7 -20 -60 -20 -53 0 -60 -2 -60 -20 0 -17 -7 -20 -40
-20 -33 0 -40 -3 -40 -20 0 -18 -7 -20 -80 -20 -73 0 -80 2 -80 20 0 18 7 20
60 20 l60 0 0 60 0 60 40 0 40 0 0 40 0 40 40 0 40 0 0 40 c0 33 3 40 20 40
17 0 20 7 20 40 0 33 3 40 20 40 18 0 20 7 20 80 l0 80 60 0 60 0 0 60 c0 53
2 60 20 60 17 0 20 7 20 40 0 33 3 40 20 40 19 0 20 -7 20 -180z m-2080 40 c0
-13 7 -20 20 -20 17 0 20 -7 20 -40 0 -33 3 -40 20 -40 17 0 20 -7 20 -40 0
-33 3 -40 20 -40 13 0 20 -7 20 -20 0 -13 7 -20 20 -20 17 0 20 -7 20 -40 0
-33 3 -40 20 -40 13 0 20 -7 20 -20 0 -13 7 -20 20 -20 13 0 20 -7 20 -20 0
-17 7 -20 40 -20 33 0 40 -3 40 -20 0 -13 7 -20 20 -20 13 0 20 7 20 20 0 13
7 20 20 20 18 0 20 -7 20 -60 l0 -60 40 0 c33 0 40 3 40 20 0 13 7 20 20 20
13 0 20 -7 20 -20 0 -13 7 -20 20 -20 13 0 20 7 20 20 0 13 7 20 20 20 17 0
20 -7 20 -40 l0 -40 -60 0 c-53 0 -60 -2 -60 -20 0 -13 7 -20 20 -20 13 0 20
-7 20 -20 0 -18 -7 -20 -80 -20 -73 0 -80 2 -80 20 0 18 -7 20 -60 20 -53 0
-60 2 -60 20 0 17 -7 20 -40 20 -33 0 -40 3 -40 20 0 13 -7 20 -20 20 -13 0
-20 7 -20 20 0 17 -7 20 -40 20 -33 0 -40 3 -40 20 0 13 -7 20 -20 20 -13 0
-20 7 -20 20 0 13 -7 20 -20 20 -13 0 -20 7 -20 20 0 13 -7 20 -20 20 -17 0
-20 7 -20 40 0 33 -3 40 -20 40 -13 0 -20 7 -20 20 0 13 -7 20 -20 20 -17 0
-20 7 -20 40 0 33 -3 40 -20 40 -13 0 -20 7 -20 20 0 17 7 20 40 20 33 0 40 3
40 20 0 13 7 20 20 20 13 0 20 7 20 20 0 13 7 20 20 20 13 0 20 7 20 20 0 13
7 20 20 20 13 0 20 -7 20 -20z m400 -260 c0 -33 -3 -40 -20 -40 -17 0 -20 7
-20 40 0 33 3 40 20 40 17 0 20 -7 20 -40z"/>
<path d="M2320 1820 l0 -60 40 0 40 0 0 40 c0 33 -3 40 -20 40 -13 0 -20 7
-20 20 0 13 -7 20 -20 20 -18 0 -20 -7 -20 -60z"/>
<path d="M3880 1800 c0 -33 3 -40 20 -40 17 0 20 7 20 40 0 33 -3 40 -20 40
-17 0 -20 -7 -20 -40z"/>
<path d="M2240 1660 c0 -13 7 -20 20 -20 13 0 20 7 20 20 0 13 -7 20 -20 20
-13 0 -20 -7 -20 -20z"/>
<path d="M3760 1540 c0 -13 7 -20 20 -20 13 0 20 7 20 20 0 13 -7 20 -20 20
-13 0 -20 -7 -20 -20z"/>
<path d="M3360 2900 c0 -13 7 -20 20 -20 13 0 20 7 20 20 0 13 -7 20 -20 20
-13 0 -20 -7 -20 -20z"/>
<path d="M2600 1300 c0 -13 -7 -20 -20 -20 -13 0 -20 -7 -20 -20 0 -17 -7 -20
-40 -20 -33 0 -40 -3 -40 -20 0 -13 -7 -20 -20 -20 -13 0 -20 -7 -20 -20 0
-17 7 -20 40 -20 33 0 40 -3 40 -20 0 -17 7 -20 40 -20 l40 0 0 -40 c0 -33 -3
-40 -20 -40 -13 0 -20 -7 -20 -20 0 -17 7 -20 40 -20 33 0 40 -3 40 -20 0 -17
7 -20 40 -20 33 0 40 3 40 20 0 13 7 20 20 20 13 0 20 -7 20 -20 0 -18 7 -20
80 -20 73 0 80 2 80 20 0 13 7 20 20 20 13 0 20 -7 20 -20 0 -17 7 -20 40 -20
l40 0 0 60 c0 53 2 60 20 60 13 0 20 7 20 20 0 13 -7 20 -20 20 -13 0 -20 7
-20 20 0 17 -7 20 -40 20 -33 0 -40 -3 -40 -20 0 -13 7 -20 20 -20 17 0 20 -7
20 -40 0 -33 -3 -40 -20 -40 -13 0 -20 7 -20 20 0 13 -7 20 -20 20 -18 0 -20
7 -20 60 0 53 -2 60 -20 60 -13 0 -20 7 -20 20 0 13 -7 20 -20 20 -13 0 -20 7
-20 20 0 17 -7 20 -40 20 -33 0 -40 -3 -40 -20 0 -13 -7 -20 -20 -20 -13 0
-20 7 -20 20 0 17 -7 20 -40 20 -33 0 -40 3 -40 20 0 13 -7 20 -20 20 -13 0
-20 -7 -20 -20z m-40 -120 c0 -13 -7 -20 -20 -20 -13 0 -20 7 -20 20 0 13 7
20 20 20 13 0 20 -7 20 -20z m120 -40 c0 -17 -7 -20 -40 -20 -33 0 -40 3 -40
20 0 17 7 20 40 20 33 0 40 -3 40 -20z"/>
<path d="M2080 1100 c0 -13 7 -20 20 -20 13 0 20 7 20 20 0 13 -7 20 -20 20
-13 0 -20 -7 -20 -20z"/>
<path d="M2040 1020 c0 -13 7 -20 20 -20 13 0 20 7 20 20 0 13 -7 20 -20 20
-13 0 -20 -7 -20 -20z"/>
<path d="M3440 740 c0 -13 7 -20 20 -20 13 0 20 7 20 20 0 13 -7 20 -20 20
-13 0 -20 -7 -20 -20z"/>
<path d="M2640 600 c0 -33 3 -40 20 -40 13 0 20 -7 20 -20 0 -13 7 -20 20 -20
13 0 20 -7 20 -20 0 -17 7 -20 40 -20 33 0 40 3 40 20 0 17 -7 20 -40 20 l-40
0 0 60 0 60 -40 0 -40 0 0 -40z"/>
<path d="M2480 460 c0 -13 7 -20 20 -20 13 0 20 7 20 20 0 13 -7 20 -20 20
-13 0 -20 -7 -20 -20z"/>
<path d="M2600 420 c0 -13 7 -20 20 -20 13 0 20 7 20 20 0 13 -7 20 -20 20
-13 0 -20 -7 -20 -20z"/>
<path d="M3040 340 c0 -13 7 -20 20 -20 13 0 20 7 20 20 0 13 -7 20 -20 20
-13 0 -20 -7 -20 -20z"/>
<path d="M3480 300 c0 -13 7 -20 20 -20 13 0 20 7 20 20 0 13 -7 20 -20 20
-13 0 -20 -7 -20 -20z"/>
</g>
</svg>
